<svg width="375.9" height="72.001" viewBox="-0.30008320574101655 -4.001126107091242 381.90018082777095 78.00122372912475" xmlns="http://www.w3.org/2000/svg"><g id="svgGroup" stroke-linecap="round" fill-rule="evenodd" font-size="9pt" stroke="#000" stroke-width="0.25mm" fill="#000" style="stroke:#000;stroke-width:0.25mm;fill:#000"><path d="M 65.1 71 L 63.4 71 Q 62.4 71 61.8 70.4 A 2.008 2.008 0 0 1 61.242 69.303 A 2.864 2.864 0 0 1 61.2 68.8 L 61.2 2.2 Q 61.2 1.2 61.8 0.6 A 2.008 2.008 0 0 1 62.897 0.042 A 2.864 2.864 0 0 1 63.4 0 L 65.1 0 A 2.705 2.705 0 0 1 65.794 0.084 A 1.97 1.97 0 0 1 66.7 0.6 A 2.008 2.008 0 0 1 67.258 1.697 A 2.864 2.864 0 0 1 67.3 2.2 L 67.3 25.9 Q 70 22.4 73.85 20.2 Q 76.865 18.477 81.445 18.103 A 32.689 32.689 0 0 1 84.1 18 A 25.916 25.916 0 0 1 89.162 18.468 Q 92.713 19.175 95.45 20.95 Q 100 23.9 102.25 28.95 A 25.809 25.809 0 0 1 104.234 36.16 A 32.808 32.808 0 0 1 104.5 40.4 L 104.5 68.8 Q 104.5 69.8 103.9 70.4 A 2.008 2.008 0 0 1 102.803 70.958 A 2.864 2.864 0 0 1 102.3 71 L 100.6 71 Q 99.6 71 99 70.4 A 2.008 2.008 0 0 1 98.442 69.303 A 2.864 2.864 0 0 1 98.4 68.8 L 98.4 40.9 A 26.463 26.463 0 0 0 97.95 35.861 Q 97.382 32.938 96.1 30.648 A 14.107 14.107 0 0 0 94.5 28.35 A 12.551 12.551 0 0 0 87.733 24.314 Q 85.653 23.808 83.179 23.8 A 24.664 24.664 0 0 0 83.1 23.8 A 17.996 17.996 0 0 0 77.879 24.522 A 14.131 14.131 0 0 0 71.65 28.35 A 15.07 15.07 0 0 0 67.964 35.177 Q 67.3 37.775 67.3 40.9 L 67.3 68.8 Q 67.3 69.8 66.7 70.4 A 2.008 2.008 0 0 1 65.603 70.958 A 2.864 2.864 0 0 1 65.1 71 Z M 182.6 71 L 180.9 71 A 2.705 2.705 0 0 1 180.206 70.916 A 1.97 1.97 0 0 1 179.3 70.4 A 2.008 2.008 0 0 1 178.742 69.303 A 2.864 2.864 0 0 1 178.7 68.8 L 178.7 21.2 Q 178.7 20.2 179.3 19.6 A 2.008 2.008 0 0 1 180.397 19.042 A 2.864 2.864 0 0 1 180.9 19 L 182.6 19 A 2.705 2.705 0 0 1 183.294 19.084 A 1.97 1.97 0 0 1 184.2 19.6 A 2.008 2.008 0 0 1 184.758 20.697 A 2.864 2.864 0 0 1 184.8 21.2 L 184.8 25.9 Q 187.5 22.4 191.35 20.2 Q 194.365 18.477 198.945 18.103 A 32.689 32.689 0 0 1 201.6 18 A 25.916 25.916 0 0 1 206.662 18.468 Q 210.213 19.175 212.95 20.95 Q 217.5 23.9 219.75 28.95 A 25.809 25.809 0 0 1 221.734 36.16 A 32.808 32.808 0 0 1 222 40.4 L 222 68.8 Q 222 69.8 221.4 70.4 A 2.008 2.008 0 0 1 220.303 70.958 A 2.864 2.864 0 0 1 219.8 71 L 218.1 71 A 2.705 2.705 0 0 1 217.406 70.916 A 1.97 1.97 0 0 1 216.5 70.4 A 2.008 2.008 0 0 1 215.942 69.303 A 2.864 2.864 0 0 1 215.9 68.8 L 215.9 40.9 A 26.463 26.463 0 0 0 215.45 35.861 Q 214.882 32.938 213.6 30.648 A 14.107 14.107 0 0 0 212 28.35 A 12.551 12.551 0 0 0 205.233 24.314 Q 203.153 23.808 200.679 23.8 A 24.664 24.664 0 0 0 200.6 23.8 A 17.996 17.996 0 0 0 195.379 24.522 A 14.131 14.131 0 0 0 189.15 28.35 A 15.07 15.07 0 0 0 185.464 35.177 Q 184.8 37.775 184.8 40.9 L 184.8 68.8 Q 184.8 69.8 184.2 70.4 A 2.008 2.008 0 0 1 183.103 70.958 A 2.864 2.864 0 0 1 182.6 71 Z M 119.7 49.6 L 119.7 21.2 Q 119.7 20.2 120.3 19.6 A 2.008 2.008 0 0 1 121.397 19.042 A 2.864 2.864 0 0 1 121.9 19 L 123.6 19 A 2.705 2.705 0 0 1 124.294 19.084 A 1.97 1.97 0 0 1 125.2 19.6 A 2.008 2.008 0 0 1 125.758 20.697 A 2.864 2.864 0 0 1 125.8 21.2 L 125.8 49.1 A 28.553 28.553 0 0 0 126.463 55.553 Q 128.943 66.2 140.7 66.2 A 17.98 17.98 0 0 0 145.82 65.506 A 13.936 13.936 0 0 0 152.1 61.65 A 15.09 15.09 0 0 0 155.717 54.927 Q 156.4 52.288 156.4 49.1 L 156.4 21.2 Q 156.4 20.2 157 19.6 A 2.008 2.008 0 0 1 158.097 19.042 A 2.864 2.864 0 0 1 158.6 19 L 160.3 19 Q 161.3 19 161.9 19.6 A 2.008 2.008 0 0 1 162.458 20.697 A 2.864 2.864 0 0 1 162.5 21.2 L 162.5 68.8 Q 162.5 69.8 161.9 70.4 A 2.008 2.008 0 0 1 160.803 70.958 A 2.864 2.864 0 0 1 160.3 71 L 158.6 71 A 2.705 2.705 0 0 1 157.906 70.916 A 1.97 1.97 0 0 1 157 70.4 A 2.008 2.008 0 0 1 156.442 69.303 A 2.864 2.864 0 0 1 156.4 68.8 L 156.4 64.1 Q 153.7 67.6 149.95 69.8 Q 147.176 71.428 142.896 71.851 A 32.509 32.509 0 0 1 139.7 72 A 25.964 25.964 0 0 1 134.931 71.585 Q 131.231 70.894 128.45 69.05 Q 124 66.1 121.85 61 Q 119.7 55.9 119.7 49.6 Z M 337.1 43.8 L 337.1 45.3 A 2.49 2.49 0 0 1 337.001 46.02 A 1.936 1.936 0 0 1 336.45 46.9 A 2.24 2.24 0 0 1 335.166 47.479 A 3.03 3.03 0 0 1 334.8 47.5 L 299.2 47.5 L 299.2 47.9 L 299.2 48.5 Q 299.4 53 301.3 57.05 Q 303.2 61.1 306.7 63.65 Q 310.2 66.2 315 66.2 A 23.514 23.514 0 0 0 318.021 66.017 Q 320.369 65.713 322.15 64.9 Q 325 63.6 326.7 62.05 A 32.899 32.899 0 0 0 327.47 61.327 Q 328.524 60.302 328.9 59.7 A 14.686 14.686 0 0 1 329.275 59.182 Q 329.833 58.446 330.203 58.206 A 1.01 1.01 0 0 1 330.3 58.15 A 1.786 1.786 0 0 1 330.65 58.024 Q 331.127 57.9 331.9 57.9 L 333.5 57.9 A 2.459 2.459 0 0 1 334.41 58.065 A 2.282 2.282 0 0 1 335.05 58.45 Q 335.7 59 335.6 59.9 A 4.013 4.013 0 0 1 335.389 60.889 Q 335.024 61.973 334.05 63.35 Q 332.798 65.12 330.652 66.852 A 27.286 27.286 0 0 1 329.95 67.4 A 20.254 20.254 0 0 1 326.631 69.416 A 27.116 27.116 0 0 1 323.5 70.7 Q 319.7 72 315 72 A 23.902 23.902 0 0 1 308.16 71.07 A 18.309 18.309 0 0 1 299.6 65.65 A 24.599 24.599 0 0 1 294.268 55.754 A 34.605 34.605 0 0 1 293.1 49 Q 293.005 47.569 293 45.226 A 121.622 121.622 0 0 1 293 45 Q 293 42.866 293.073 41.461 A 31.299 31.299 0 0 1 293.1 41 A 34.454 34.454 0 0 1 294.226 34.32 A 27.349 27.349 0 0 1 296.3 29 A 20.467 20.467 0 0 1 301.703 22.332 A 19.89 19.89 0 0 1 303.75 20.9 A 19.599 19.599 0 0 1 311.016 18.298 A 25.772 25.772 0 0 1 315 18 A 26.343 26.343 0 0 1 320.628 18.572 A 19.347 19.347 0 0 1 326.9 21.1 A 19.566 19.566 0 0 1 333.567 28.254 A 24.323 24.323 0 0 1 334.45 30 Q 337.021 35.628 337.098 43.326 A 47.716 47.716 0 0 1 337.1 43.8 Z M 26 71 L 24.2 71 A 2.705 2.705 0 0 1 23.506 70.916 A 1.97 1.97 0 0 1 22.6 70.4 A 2.008 2.008 0 0 1 22.042 69.303 A 2.864 2.864 0 0 1 22 68.8 L 22 7 L 2.2 7 A 2.705 2.705 0 0 1 1.506 6.916 A 1.97 1.97 0 0 1 0.6 6.4 A 2.008 2.008 0 0 1 0.042 5.303 A 2.864 2.864 0 0 1 0 4.8 L 0 3.3 A 3.246 3.246 0 0 1 0.065 2.632 Q 0.197 2.003 0.6 1.6 A 2.008 2.008 0 0 1 1.697 1.042 A 2.864 2.864 0 0 1 2.2 1 L 48 1 A 3.246 3.246 0 0 1 48.668 1.065 Q 49.297 1.197 49.7 1.6 A 1.953 1.953 0 0 1 50.2 2.485 Q 50.3 2.851 50.3 3.3 L 50.3 4.8 A 2.705 2.705 0 0 1 50.216 5.494 A 1.97 1.97 0 0 1 49.7 6.4 A 1.953 1.953 0 0 1 48.815 6.9 Q 48.449 7 48 7 L 28.3 7 L 28.3 68.8 Q 28.3 69.8 27.7 70.4 A 1.953 1.953 0 0 1 26.815 70.9 Q 26.449 71 26 71 Z M 273.3 25.9 L 273.3 2.2 Q 273.3 1.2 273.9 0.6 A 2.008 2.008 0 0 1 274.997 0.042 A 2.864 2.864 0 0 1 275.5 0 L 277.2 0 Q 278.2 0 278.8 0.6 A 2.008 2.008 0 0 1 279.358 1.697 A 2.864 2.864 0 0 1 279.4 2.2 L 279.4 68.8 Q 279.4 69.8 278.8 70.4 A 2.008 2.008 0 0 1 277.703 70.958 A 2.864 2.864 0 0 1 277.2 71 L 275.5 71 A 2.705 2.705 0 0 1 274.806 70.916 A 1.97 1.97 0 0 1 273.9 70.4 A 2.008 2.008 0 0 1 273.342 69.303 A 2.864 2.864 0 0 1 273.3 68.8 L 273.3 64.1 A 19.526 19.526 0 0 1 268.214 68.866 A 23.31 23.31 0 0 1 266.75 69.75 A 16.612 16.612 0 0 1 262.481 71.365 Q 259.794 72 256.5 72 A 26.768 26.768 0 0 1 252.076 71.654 Q 249.055 71.147 246.65 69.9 A 18.521 18.521 0 0 1 241.268 65.764 A 17.595 17.595 0 0 1 240.1 64.3 Q 237.6 60.8 236.45 56.5 Q 235.3 52.2 235.1 47.8 Q 235 46.3 235 45 Q 235 43.7 235.1 42.2 Q 235.3 37.8 236.45 33.5 Q 237.6 29.2 240.1 25.7 A 18.099 18.099 0 0 1 246.336 20.266 A 21.081 21.081 0 0 1 246.65 20.1 A 17.887 17.887 0 0 1 251.408 18.469 Q 253.465 18.059 255.821 18.007 A 31.195 31.195 0 0 1 256.5 18 A 27.563 27.563 0 0 1 260.848 18.324 Q 263.218 18.703 265.173 19.526 A 14.893 14.893 0 0 1 266.75 20.3 A 22.947 22.947 0 0 1 270.964 23.339 A 19.305 19.305 0 0 1 273.3 25.9 Z M 354.1 71 L 352.5 71 A 2.705 2.705 0 0 1 351.806 70.916 A 1.97 1.97 0 0 1 350.9 70.4 A 2.008 2.008 0 0 1 350.342 69.303 A 2.864 2.864 0 0 1 350.3 68.8 L 350.3 21.3 A 2.735 2.735 0 0 1 350.407 20.519 A 2.178 2.178 0 0 1 350.9 19.65 Q 351.5 19 352.5 19 L 354.1 19 A 2.517 2.517 0 0 1 354.921 19.129 A 2.143 2.143 0 0 1 355.75 19.65 A 2.195 2.195 0 0 1 356.394 21.116 A 2.933 2.933 0 0 1 356.4 21.3 L 356.4 25.9 Q 358.2 22.4 361.6 20.7 A 15.115 15.115 0 0 1 365.269 19.452 Q 367.422 19 370 19 L 373.7 19 A 2.705 2.705 0 0 1 374.394 19.084 A 1.97 1.97 0 0 1 375.3 19.6 A 2.008 2.008 0 0 1 375.858 20.697 A 2.864 2.864 0 0 1 375.9 21.2 L 375.9 22.6 Q 375.9 23.6 375.3 24.2 A 2.008 2.008 0 0 1 374.203 24.758 A 2.864 2.864 0 0 1 373.7 24.8 L 369.4 24.8 A 16.645 16.645 0 0 0 365.41 25.252 A 11.523 11.523 0 0 0 359.9 28.3 A 11.641 11.641 0 0 0 356.742 34.294 A 17.08 17.08 0 0 0 356.4 37.8 L 356.4 68.8 A 2.49 2.49 0 0 1 356.301 69.52 A 1.936 1.936 0 0 1 355.75 70.4 A 2.24 2.24 0 0 1 354.466 70.979 A 3.03 3.03 0 0 1 354.1 71 Z M 257.1 66.2 A 19.668 19.668 0 0 0 260.913 65.851 Q 263.272 65.385 265.123 64.296 A 11.36 11.36 0 0 0 266.3 63.5 Q 269.8 60.8 271.5 56.75 A 22.831 22.831 0 0 0 273.18 50.391 A 21.064 21.064 0 0 0 273.3 48.6 Q 273.399 47.116 273.4 44.752 A 113.568 113.568 0 0 0 273.4 44.7 A 99.689 99.689 0 0 0 273.394 43.556 Q 273.375 41.925 273.3 40.8 A 20.217 20.217 0 0 0 271.713 33.51 A 23.265 23.265 0 0 0 271.45 32.9 Q 269.7 29 266.2 26.4 Q 262.919 23.963 257.793 23.81 A 23.291 23.291 0 0 0 257.1 23.8 Q 252.638 23.8 249.567 25.339 A 11.125 11.125 0 0 0 247.85 26.4 Q 244.4 29 242.9 33.2 A 29.91 29.91 0 0 0 241.272 40.991 A 34.138 34.138 0 0 0 241.2 42.2 Q 241.1 45 241.2 47.8 Q 241.4 52.6 242.9 56.8 Q 244.4 61 247.85 63.6 A 12.085 12.085 0 0 0 251.96 65.57 Q 253.672 66.042 255.703 66.16 A 24.013 24.013 0 0 0 257.1 66.2 Z M 299.2 41.5 L 299.2 41.9 L 331 41.9 L 331 41.5 A 22.614 22.614 0 0 0 330.399 36.192 A 18.881 18.881 0 0 0 329.1 32.5 Q 327.2 28.5 323.6 26.15 A 14.328 14.328 0 0 0 317.863 24.01 A 18.888 18.888 0 0 0 315 23.8 A 17.754 17.754 0 0 0 310.784 24.278 A 13.638 13.638 0 0 0 306.45 26.15 Q 302.9 28.5 301.05 32.5 A 20.056 20.056 0 0 0 299.347 38.757 A 24.925 24.925 0 0 0 299.2 41.5 Z" vector-effect="non-scaling-stroke"/></g></svg>